# xmcd
#
# Track frame offsets:
#	150
#	16002
#	33595
#	46967
#	65880
#	86297
#	102090
#	116700
#	133697
#	153630
#	170280
#	185242
#
# Disc length: 2742 seconds
#
# Revision: 1
# Processed by: cddbd v1.5.1PL0 Copyright (c) Steve Scherf et al.
# Submitted via: CDex 1.50Beta5
#
DISCID=9f0ab40c
DTITLE=中村雅俊 - メモリアル
DYEAR=1900
DGENRE=Pop
TTITLE0=ふれあい
TTITLE1=白い写真館
TTITLE2=いつか街で会ったなら
TTITLE3=俺たちの旅
TTITLE4=俺たちの祭
TTITLE5=青春試考
TTITLE6=時代遅れの恋人たち
TTITLE7=日時計
TTITLE8=激しさは愛
TTITLE9=マーマレードの朝
TTITLE10=表通りは欅通り
TTITLE11=心の色
EXTD=
EXTT0=
EXTT1=
EXTT2=
EXTT3=
EXTT4=
EXTT5=
EXTT6=
EXTT7=
EXTT8=
EXTT9=
EXTT10=
EXTT11=
PLAYORDER=
